<svg width="31.5px" height="32.592px" viewBox="0 0 31.5 32.592">
<path fill="#2C2B35" d="M20.529,28.675l-0.462,1.889c-1.385,0.546-2.492,0.963-3.316,1.249c-0.827,0.286-1.785,0.431-2.877,0.431
	c-1.68,0-2.983-0.41-3.916-1.229c-0.93-0.818-1.396-1.857-1.396-3.117c0-0.49,0.036-0.99,0.105-1.501
	c0.07-0.511,0.182-1.089,0.335-1.731l1.733-6.131c0.155-0.588,0.286-1.145,0.39-1.668c0.106-0.525,0.158-1.005,0.158-1.439
	c0-0.783-0.161-1.329-0.483-1.637c-0.323-0.307-0.94-0.462-1.853-0.462c-0.45,0-0.908,0.071-1.379,0.21
	c-0.471,0.14-0.875,0.273-1.21,0.399l0.462-1.89c1.136-0.462,2.22-0.857,3.257-1.186c1.037-0.329,2.018-0.494,2.944-0.494
	c1.667,0,2.952,0.402,3.855,1.207c0.904,0.805,1.356,1.851,1.356,3.139c0,0.266-0.032,0.734-0.095,1.406
	c-0.063,0.672-0.18,1.287-0.347,1.848l-1.727,6.109c-0.141,0.49-0.268,1.049-0.38,1.679c-0.111,0.63-0.168,1.106-0.168,1.427
	c0,0.812,0.182,1.366,0.546,1.66c0.362,0.293,0.992,0.439,1.886,0.439c0.419,0,0.896-0.073,1.426-0.22
	C19.907,28.915,20.292,28.786,20.529,28.675z M20.97,4.212c0,1.063-0.402,1.969-1.207,2.719c-0.804,0.748-1.774,1.123-2.907,1.123
	c-1.134,0-2.107-0.375-2.919-1.123c-0.812-0.75-1.217-1.655-1.217-2.719s0.404-1.974,1.217-2.729
	c0.812-0.755,1.785-1.134,2.919-1.134c1.133,0,2.104,0.379,2.907,1.134C20.567,2.238,20.97,3.148,20.97,4.212z"/>
</svg>
