<svg width="31.5px" height="32.592px" viewBox="0 0 31.5 32.592">
<path fill="#2C2B35" d="M21.438,1.23c-1.249,0-2.435,0.277-3.496,0.773c-0.035,0.012-0.067,0.026-0.101,0.045
	c-2.513,1.205-4.323,3.643-4.626,6.533c-0.002,0.006-0.003,0.014-0.002,0.024c-0.073,0.817-0.044,1.614,0.136,2.415
	c0.108,0.48,0.326,1.016,0.431,1.377l-1.563,1.563l0.028,3.837l-3.947,0.015l0.128,3.622l-3.727,0.004l-0.115,4.077l-3.256-0.006
	l0.009,4.491l0.954,0.955l8.729-8.807l5.842-5.842c0.264,0.203,0.303,0.164,0.58,0.352L2.752,31.35l1.854,0.012l14.125-14.125
	c0.74,0.191,1.754,0.46,2.695,0.463c4.55-0.003,8.245-3.682,8.245-8.236C29.668,4.912,25.988,1.23,21.438,1.23z M24.403,7.82
	c-0.821,0-1.482-0.662-1.482-1.481c0.001-0.82,0.662-1.481,1.482-1.481c0.821-0.003,1.483,0.659,1.481,1.481
	C25.887,7.162,25.225,7.822,24.403,7.82z"/>
</svg>
